<?xml version="1.0" standalone="no"?>
<!DOCTYPE svg PUBLIC "-//W3C//DTD SVG 1.1//EN" "http://www.w3.org/Graphics/SVG/1.1/DTD/svg11.dtd">
<svg width="998.380887756px" height="1000px" version="1.1" xmlns="http://www.w3.org/2000/svg">
<path d="M24.5101347339 24.0614528228 Q31.329860059 34.7734474164 34.7397227216 40.1294447132 T41.6526131971 50.7809636829 T48.7763874398 61.2922264234 T56.1137877376 71.6557869869 T63.6428031429 81.8809618886 T71.359202178 91.9654991832 T79.2855769378 101.885335747 T87.4754111198 111.588113856 T95.9313925295 121.060339999 T104.621648879 130.318195492 T113.554970018 139.341213059 T122.729158484 148.119640325 T132.11216038 156.674779965 T141.677351904 165.025991442 T151.390699626 173.204820151 T161.195686987 181.274048141 T171.043297859 189.291281623 T180.914717602 197.279194417 T190.790205375 205.262085736 T200.635972921 213.281525761 T210.441650394 221.350009157 T220.22212061 229.449057259 T229.978237129 237.577416971 T239.701518835 245.745013195 T249.391647913 253.951936735 T259.05113056 262.194918638 T268.687993871 270.464369978 T278.277384725 278.788603516 T287.772166641 287.220440078 T297.145906505 295.786448985 T306.413187478 304.467897323 T315.609795511 313.224259159 T324.742695289 322.047053377 T333.824136305 330.922904512 T342.901472968 339.802978045 T352.008289229 348.652827386 T361.143667962 357.473206211 T370.313093746 366.258171383 T379.508634829 375.01584988 T388.708965836 383.768511443 T397.913015277 392.517263884 T407.098999214 401.284926307 T416.230459745 410.10931414 T425.29518597 419.002218311 T434.31676656 427.939024063 T443.269292796 436.944593595 T452.08751956 446.081538703 T460.773003011 455.344935524 T469.204820278 464.836566533 T477.025481876 474.826998854 T483.533101678 485.680896638 T488.829892907 497.216193413 T494.440569424 508.58529062 T501.686366972 518.938989276 T511.755205916 525.995893006 T523.915724503 526.945829078 T535.452501955 522.196716244 T544.801742835 513.824161798 T552.067310168 503.455095092 T558.262023099 492.3745556 T563.91964938 481.009651278 T570.130752476 469.973175111 T577.745058034 459.837350446 T586.259596828 450.425683921 T595.131693208 441.340851367 T603.996802202 432.249322001 T612.748637446 423.048836627 T621.414767109 413.767326629 T629.964072576 404.378894639 T638.33705437 394.832785626 T646.545285491 385.14461792 T654.565115975 375.300407667 T662.354013115 365.272731988 T673.423004579 350.078104359 " stroke="blue" stroke-width="4.17px" fill="none"/>
<path d="M160.531762706 24.0614528228 Q166.656000195 35.1856623447 169.754513279 40.7275904034 T176.290656963 51.6077181279 T183.659257598 61.9319786164 T191.933494321 71.5493825784 T200.930877851 80.4995751451 T210.456469646 88.8905043972 T220.381554695 96.8062913827 T230.645811742 104.277972991 T241.177532677 111.369929428 T251.906580307 118.160579235 T262.809064036 124.668936821 T273.867930826 130.908513856 T285.052852063 136.919700067 T296.342679438 142.731679936 T307.747228891 148.314161168 T319.298536156 153.584802479 T331.018857353 158.466511069 T342.942861541 162.820156682 T355.111192698 166.422124795 T367.538506628 168.948752775 T380.165630748 169.79628323 T392.607023875 167.914928341 T403.557733735 162.041110784 T410.844220096 152.086332749 T413.64783733 139.881679896 T413.184772027 127.249647807 T410.729043998 114.816095625 T406.967995937 102.699686333 T402.294446987 90.8996934957 T396.927017436 79.3961765022 T391.005355126 68.1662890058 T384.600055812 57.2049278081 T377.729843329 46.5287827285 T370.416574258 36.150875095 T362.867196002 25.9401199066 T355.302549013 15.7406426049 T347.734569508 5.54363517849 T343.945703568 0.448754554468 " stroke="blue" stroke-width="4.17px" fill="none"/>
<path d="M296.553408838 24.0614528228 Q288.756484603 14.0384444812 284.923101884 8.97697981756 T281.089719166 3.91551515388 " stroke="blue" stroke-width="4.17px" fill="none"/>
<path d="M432.575054971 24.0614528228 Q424.676094011 14.1186427861 420.760542536 9.12046867773 T416.84499106 4.12229456939 " stroke="blue" stroke-width="4.17px" fill="none"/>
<path d="M568.596682943 24.0614528228 Q559.2829329 15.4298196911 554.73123643 11.0032037915 T550.17953996 6.57658789193 " stroke="blue" stroke-width="4.17px" fill="none"/>
<path d="M704.618347236 24.0614528228 Q692.048988234 25.8686024871 685.703742304 26.0949048143 T673.023938104 25.8892332105 T660.443056044 24.3186467524 T648.111649552 21.3676905583 T636.14408657 17.1659786006 T624.596229866 11.9102291848 T613.483384495 5.78230504311 T608.035915547 2.52076202628 " stroke="blue" stroke-width="4.17px" fill="none"/>
<path d="M840.639975208 24.0614528228 Q833.397901202 34.492208524 829.572336728 39.5594846591 T821.586303582 49.4228954683 T812.847920986 58.6184592525 T803.30474041 66.9749555368 T793.027870654 74.4104062531 T782.148187871 80.9398485836 T770.796522808 86.6106096982 T759.052356417 91.4176408811 T746.991246907 95.3647195889 T734.684148711 98.4631055471 T722.186679425 100.660985857 T709.558352149 101.908563472 T696.872990729 102.164268212 T684.226938465 101.226932363 T671.731230782 99.0424910814 T659.504893876 95.6708025213 T647.648407181 91.158721671 T636.197284234 85.690544816 T625.162217235 79.4218014588 T614.527024867 72.4916581777 T604.239644521 65.0520304663 T594.232817495 57.2368727397 T584.452093027 49.1398586519 T574.866211757 40.8125831721 T565.443551108 32.3006663506 T556.200673775 23.5945555812 T547.164024221 14.6743647354 T538.288581705 5.5930326851 T533.881459205 1.02245574328 " stroke="blue" stroke-width="4.17px" fill="none"/>
<path d="M976.66160318 24.0614528228 Q972.78600557 36.1526185364 970.848352052 42.1982558757 T966.62235904 54.165673571 T961.588680474 65.811680578 T955.751021166 77.0803959675 T949.343311 88.0390693597 T942.538949752 98.7573476067 T935.419552274 109.269772641 T928.099096047 119.644465805 T920.571261097 129.86842393 T912.713243769 139.839909945 T904.617174046 149.621687743 T896.416370711 159.315966574 T888.086044209 168.898864925 T879.698420231 178.432274965 T871.429404752 188.068039544 T863.390323769 197.895782448 T855.723776262 208.013944553 T848.700050131 218.581569485 T842.596207274 229.701066267 T837.703238958 241.394554811 T834.420574875 253.624750897 T833.102732939 266.210490984 T833.781767046 278.855444517 T836.230503149 291.287462106 T840.185608952 303.332962368 T845.406907239 314.890707653 T851.580269822 325.979503522 T858.380653844 336.69908935 T865.627358867 347.124006338 T873.18737484 357.325322426 T880.944417853 367.37835973 T888.813386172 377.344270365 T896.751365714 387.255326159 T904.719292494 397.142377852 T912.64216221 407.065392565 T920.48051134 417.055343622 T928.235393212 427.11017431 T935.840211997 437.278294638 T943.264729882 447.579247948 T950.547974532 457.98067842 T957.581089821 468.550875382 T964.255092502 479.351710006 T970.633799794 490.330598693 T976.863824223 501.395389892 T983.036078994 512.492554506 T989.160861309 523.61606143 T995.297466337 534.733066771 T998.380887756 540.283239855 " stroke="blue" stroke-width="4.17px" fill="none"/>
<path d="M24.5101347339 160.083080795 Q34.644795969 167.734282385 39.8005154339 171.439894458 T50.1190007727 178.841275423 T60.3764475013 186.326123646 T70.5144866542 193.972321923 T80.5855304388 201.70696353 T90.6274260623 209.479416023 T100.626698175 217.306496346 T110.559846641 225.217225535 T120.41682851 233.222645386 T130.127306818 241.403716959 T139.59501091 249.863775479 T148.800617643 258.608732302 T157.750101937 267.615641197 T166.50470217 276.813466007 T175.152861674 286.111720307 T183.749408047 295.457882923 T192.379452105 304.772963248 T201.120014003 313.984181683 T209.990752859 323.07015383 T218.983414569 332.035556107 T228.092786969 340.882368047 T237.293953375 349.63396266 T246.520417842 358.359028815 T255.713793244 367.118904774 T264.839056386 375.94957626 T273.834878083 384.911459873 T282.639466051 394.060958666 T291.19481454 403.443025279 T299.450409153 413.089727229 T307.419516388 422.975089963 T315.023072994 433.14148501 T322.068238006 443.699375728 T328.391264138 454.702250354 T333.681691693 466.225183564 T337.462925537 478.312997466 T339.342482502 490.828600927 T339.949045746 503.510153676 T340.054605675 516.205568827 T339.820230851 528.901514048 T339.587045562 541.597465512 T339.531082909 554.295401049 T339.363303914 566.991057399 T338.738961201 579.6715449 T337.390981337 592.289343425 T334.790193534 604.692798541 T330.362487984 616.541989116 T323.485419781 627.08438863 T313.965648538 635.271312536 T302.528082664 640.543397635 T290.169698233 643.235934042 T277.521984251 643.917142911 T264.877566464 642.983593599 T252.394189996 640.7379775 T240.187893586 637.291434465 T228.350779976 632.72785853 T216.90268989 627.250015564 T205.841298742 621.026115881 T195.200521914 614.10776807 T185.017434777 606.531207565 T175.322029973 598.339629941 T166.157375952 589.558850845 T157.582168575 580.202375137 T149.645932475 570.29810696 T142.367409646 559.900179262 T135.736175763 549.076904072 T129.706265718 537.905880424 T124.197208794 526.467520013 T119.141047098 514.821275213 T114.377038964 503.050462318 T109.661048112 491.260093027 T104.861644485 479.503560234 T99.7412115479 467.886757006 T94.0346009194 456.548316446 T84.4855362285 440.360892009 " stroke="blue" stroke-width="4.17px" fill="none"/>
<path d="M160.531762706 160.083080795 Q170.340291432 168.14813179 175.29262756 172.121471084 T185.213935153 180.047319179 T195.161022069 187.940822804 T205.120276754 195.818980512 T215.091426794 203.682055637 T225.065382685 211.541589395 T235.026462535 219.417440676 T244.982430106 227.299757219 T254.940404451 235.179558484 T264.890224575 243.06965695 T274.793961547 251.017316223 T284.604242795 259.079806539 T294.296796347 267.283370322 T303.887403977 275.606214555 T313.401890414 284.016012928 T322.835706363 292.516125199 T332.18595517 301.108149521 T341.500599635 309.738965414 T350.824842108 318.359420544 T360.16448044 326.963194935 T369.549434627 335.51737205 T379.01544522 343.981680208 T388.570330463 352.345549797 T398.221513602 360.598002583 T407.971083135 368.734076114 T417.813236672 376.757897445 T427.757404232 384.654783527 T437.856837962 392.350865114 T448.145441896 399.792417875 T458.635937707 406.945390221 T469.44997243 413.589908765 T480.723525983 419.409625155 T492.50915813 424.08327626 T504.793333931 427.151601474 T517.399503837 428.03019379 T529.953551543 426.510214805 T542.09618964 422.920114806 T553.607427264 417.628109528 T564.430679753 411.016648267 T574.567679197 403.391779906 T583.971071186 394.876385282 T592.762615124 385.719381519 T600.993597248 376.059331345 T608.537164032 365.854510214 T615.340067872 355.141616658 T621.389587093 343.98514893 T626.595076362 332.414318754 T630.799235494 320.445538995 T633.861363319 308.13805034 T635.679068976 295.586933909 T636.267689302 282.916219214 T635.752502365 270.238567074 T634.259272039 257.637072451 T631.948304129 245.155711837 T628.983382243 232.812155738 T625.401209454 220.633690828 T621.149991025 208.673837126 T616.248518892 196.963631522 T610.775370505 185.509157898 T604.778980845 174.318933694 T598.343648029 163.373989903 T591.559935666 152.640710795 T584.503915007 142.083828005 T577.244188656 131.665566967 T569.810656179 121.370636248 T562.214407044 111.195058622 T554.481872096 101.122543809 T546.653595427 91.124070773 T538.731395392 81.2000572139 T530.681958185 71.3790883065 T522.509129367 61.6604376169 T514.233580523 52.0290316411 T505.848636689 42.4928793131 T493.249971469 28.5377749634 " stroke="blue" stroke-width="4.17px" fill="none"/>
<path d="M296.553408838 160.083080795 Q307.668537936 166.223517761 313.280149169 169.193778936 T324.555638555 175.033381455 T335.9459045 180.645174296 T347.483150728 185.946235027 T359.200720557 190.833627963 T371.134735913 195.158425068 T383.329904263 198.661044262 T395.79764424 200.957519815 T408.439020086 201.434732418 T420.798314829 199.097549324 T431.635557982 192.939505416 T439.227750437 183.094110168 T442.961148607 171.106007267 T443.697427977 158.484417666 T442.375674648 145.885293033 T439.584754117 133.512234636 T435.751671052 121.414966878 T431.122436841 109.596177563 T425.866324209 98.0404118096 T420.105562472 86.7265667127 T413.924722159 75.6358639555 T407.382726142 64.7538656636 T400.503346972 54.082024705 T393.29886138 43.6267336981 T385.816601078 33.3677432974 T378.218156751 23.1934187702 T370.629601005 13.0117209387 T366.83783387 7.91900145556 " stroke="blue" stroke-width="4.17px" fill="none"/>
<path d="M432.575054971 160.083080795 Q432.905995564 147.388756997 432.022234217 141.101235323 T429.569030546 128.661417649 T425.922193788 116.509267808 T421.388635464 104.654411048 T416.184816993 93.0754175706 T410.450084292 81.7486601108 T404.272966953 70.6561594296 T397.704328972 59.7906875094 T390.766816927 49.1568572057 T383.477778968 38.7607160808 T375.95193717 28.5328896953 T368.365660611 18.3494847441 T360.790335044 8.15792557205 T357.005568915 3.05999392556 " stroke="blue" stroke-width="4.17px" fill="none"/>
<path d="M568.596682943 160.083080795 Q562.549787965 148.91662914 559.356976947 143.428493513 T552.832553821 132.535362622 T546.052008256 121.799486513 T539.020166496 111.226840106 T531.730445234 100.830190478 T524.22169166 90.590178163 T516.535773338 80.4823041787 T508.684474389 70.5023915294 T500.668185838 60.6545264061 T492.494615831 50.9367474372 T484.173069531 41.3453498095 T475.762836432 31.8311721077 T467.392217819 22.2823798295 T459.133694769 12.6364451753 T455.032500835 7.78944196581 " stroke="blue" stroke-width="4.17px" fill="none"/>
<path d="M704.618347236 160.083080795 Q692.23201326 157.284566759 686.256794609 155.137391537 T674.518939113 150.324548883 T663.205620681 144.576059339 T652.299908862 138.081849053 T641.741473318 131.032007623 T631.491690468 123.540258278 T621.543236947 115.651712564 T611.86018606 107.438450888 T602.386629635 98.9833956819 T593.085079142 90.3393405302 T583.938150108 81.5315834945 T574.92024709 72.5915791635 T565.98496912 63.568706883 T557.1032543 54.4931499824 T548.275672429 45.3649266225 T539.468885864 36.216599204 T530.690067004 27.0415390171 T521.981835956 17.7994834619 T513.349292511 8.48667324283 T509.051745759 3.81290636259 " stroke="blue" stroke-width="4.17px" fill="none"/>
<path d="M840.639975208 160.083080795 Q831.025949164 168.377939161 826.141352999 172.433728705 T816.339543786 180.505717144 T806.467479333 188.491586842 T796.509005565 196.369254207 T786.386666465 204.033195633 T776.016068573 211.356457711 T765.303066052 218.161572634 T754.000226429 223.885372505 T741.913800697 227.515054072 T729.362203004 227.932553807 T717.132833237 224.91944211 T705.684025798 219.507164346 T695.054209042 212.604961529 T685.167379819 204.653007215 T675.778911507 196.106929838 T666.645557708 187.285288834 T657.6418088 178.330937433 T648.716210562 169.298385421 T639.82073209 160.236067778 T630.943913889 151.155480323 T622.104734046 142.038298759 T613.317108311 132.871447275 T604.589277167 123.647679694 T595.910180659 114.377983328 T587.265185683 105.076505478 T578.662553156 95.7358910006 T570.100741675 86.3578288546 T561.557472419 76.96287712 T553.019953342 67.562713222 T544.499364715 58.1472215682 T535.95695356 48.7516342039 T527.341482448 39.4230240471 T518.693943818 30.1240160725 T510.082997028 20.7912107598 T501.516431944 11.4175616998 T497.239626015 6.72481673343 " stroke="blue" stroke-width="4.17px" fill="none"/>
<path d="M976.66160318 160.083080795 Q967.914612342 169.28830615 963.57852827 173.926241677 T955.023842651 183.309261735 T946.761455881 192.949294113 T938.849936695 202.8794642 T931.480355374 213.210925464 T924.894578093 224.057183207 T919.149194054 235.371772899 T914.527022143 247.175334343 T911.380655225 259.451958637 T909.716885455 272.020881779 T909.244467316 284.701466895 T909.692894975 297.38457637 T911.129054836 309.989412589 T913.630947741 322.427831877 T917.091315722 334.636897816 T921.399450249 346.574286549 T926.440175225 358.223648773 T932.038638003 369.618177977 T938.042632518 380.805446504 T944.37165173 391.812554878 T950.918582957 402.692514614 T957.580526835 413.502595948 T964.335036555 424.255082422 T971.173576518 434.954373503 T978.069668209 445.616732229 T985.005441353 456.253332062 T991.867899154 466.936834555 T995.252645364 472.308443371 " stroke="blue" stroke-width="4.17px" fill="none"/>
<path d="M24.5101347339 296.104726927 Q15.4471451401 287.20999759 11.4213573171 282.300248651 T7.39556949405 277.390499712 " stroke="blue" stroke-width="4.17px" fill="none"/>
<path d="M160.531762706 296.104726927 Q168.752524812 305.783042374 172.912248889 310.57985808 T181.31236753 320.102344369 T189.875534265 329.478463305 T198.63701746 338.668851247 T207.610955335 347.652341729 T216.748458889 356.469973726 T225.996407639 365.172034626 T235.308881882 373.80521143 T244.606346185 382.454460584 T253.808411553 391.204888363 T262.855374198 400.114954536 T271.66325836 409.260289955 T280.149595627 418.703812877 T288.231835865 428.493962826 T295.753523368 438.716810869 T302.572340651 449.420449202 T308.524958127 460.623221417 T313.130176886 472.422103038 T315.83528968 484.782383575 T316.756389731 497.425990935 T316.573891369 510.117648493 T315.634176449 522.775234031 T314.212472623 535.393365693 T312.565719569 547.983786739 T310.431856249 560.496302288 T307.286052316 572.780238593 T302.621747238 584.554338601 T295.823942056 595.17349494 T286.529056594 603.631065424 T275.183257485 608.999307672 T262.754563331 611.072268588 T250.130948795 610.393048332 T237.785022705 607.580323433 T225.925934468 603.106334961 T214.59085026 597.408945503 T203.77743641 590.771427966 T193.526827241 583.292404836 T183.882109364 575.046147169 T174.895050275 566.087823082 T166.613776224 556.472884456 T159.067344565 546.27033343 T152.230402756 535.57682658 T146.035900946 524.49709638 T140.435059096 513.10491787 T135.256565927 501.511143732 T130.257937798 489.837896588 T125.307472237 478.144050503 T120.152624493 466.541052924 T114.534947537 455.156255664 T108.388826226 444.048508951 T101.731767616 433.238377675 T94.5737783361 422.754263132 T86.9120252927 412.631978515 T78.8243095591 402.844915911 T70.3752474325 393.367972487 T61.5737558893 384.217579272 T52.4843241008 375.351258042 T43.1903466811 366.699157634 T33.7331758812 358.225324111 T24.1588494507 349.883706102 T14.5213777517 341.61485861 T4.84707585285 333.389138592 T0.0 329.287956009 " stroke="blue" stroke-width="4.17px" fill="none"/>
<path d="M296.553408838 296.104726927 Q305.807777449 304.800140957 310.404542333 309.180001754 T319.566127171 317.973012181 T328.662932264 326.833036137 T337.729844601 335.723779168 T346.814354799 344.596515718 T355.927740746 353.439609224 T365.074174896 362.248510393 T374.248504109 371.028395067 T383.434083967 379.796529673 T392.616367631 388.56812392 T401.787105536 397.351795131 T410.920491117 406.17418981 T419.987501069 415.064760313 T429.000080689 424.010603356 T437.941138349 433.027670976 T446.755689812 442.168146098 T455.404830001 451.465020173 T463.83305596 460.961823618 T471.779307768 470.856580051 T478.673302448 481.487977936 T483.921756311 493.003960649 T488.655263868 504.777376788 T494.474981961 516.038334658 T502.471576775 525.70097559 T513.411140414 531.352883474 T525.754195955 531.275674899 T537.25431006 526.310501321 T546.793570163 518.112528809 T554.225631611 507.886449271 T560.426453396 496.808840485 T566.120042697 485.46153289 T571.87664106 474.148003338 T578.722695074 463.493056508 T586.775664565 453.690125863 T595.447224321 444.417142384 T604.260851851 435.275638904 T612.968279282 426.033056684 T621.639952544 416.756688477 T630.251912937 407.42550856 T638.698800302 397.944715037 T646.983325145 388.321676672 T655.128819617 378.58049291 T663.105400041 368.70120498 T670.850184482 358.639459549 T678.28032315 348.344755841 T685.261244162 337.742239379 T691.624859789 326.761682165 T697.108337159 315.323353536 T701.298090198 303.364734771 T703.425206763 290.915273687 T702.992506398 278.289207437 T700.216293884 265.948212017 T695.599397699 254.148673201 T689.794382516 242.865556259 T683.348225834 231.928467035 T676.505990138 221.233443754 T669.304641833 210.77692689 T661.829582307 200.512333867 T654.17204258 190.383075484 T646.305453332 180.41569382 T638.236157239 170.61114232 T630.033996381 160.917008775 T621.744531787 151.297371028 T613.395735702 141.729073999 T605.015766522 132.188072725 T596.617068967 122.663561501 T588.211365865 113.145243125 T579.808343758 103.624582001 T571.407532735 94.1019776655 T563.002823939 84.5828420521 T554.592110713 75.0690275672 T546.178301063 65.5579553704 T537.735934614 56.0723265216 T525.115753613 42.1366179576 " stroke="blue" stroke-width="4.17px" fill="none"/>
<path d="M432.575054971 296.104726927 Q444.151614895 301.323555339 450.126978833 303.470249298 T462.271051637 307.12037998 T474.76524062 309.173082471 T487.39708429 308.985290222 T499.569421049 305.818465108 T510.310236909 299.320622653 T518.799363001 290.0323659 T524.906431679 278.972709113 T528.882608605 266.959653206 T530.996196474 254.468122518 T531.707486517 241.801375968 T531.400808817 229.115115586 T530.193258846 216.481476262 T528.164041737 203.952234572 T525.407008213 191.561342223 T521.96800874 179.342460346 T517.892982885 167.319397812 T513.253681322 155.502206652 T508.079013282 143.909374608 T502.410137491 132.549310153 T496.304128669 121.417600201 T489.80964143 110.507507077 T482.974534718 99.8070627829 T475.881295104 89.2749695497 T468.610601871 78.8643360681 T461.192616215 68.5580548192 T453.642637516 58.3480079039 T445.962076644 48.235902442 T438.134621753 38.2372114759 T430.225325001 28.3026283033 T422.346570255 18.3438912029 T414.531312644 8.33522993123 T410.638593894 3.31925819183 " stroke="blue" stroke-width="4.17px" fill="none"/>
<path d="M568.596682943 296.104726927 Q571.393957501 283.718175021 572.145219571 277.413518587 T573.049718336 264.761436921 T572.852759399 252.074386543 T571.783108152 239.426354747 T570.005742279 226.857386202 T567.53525175 214.406635698 T564.382065433 202.110370447 T560.60535364 189.990292664 T556.248722838 178.066206752 T551.369668002 166.345122799 T546.042646338 154.820176005 T540.295828727 143.498812317 T534.151235197 132.387914697 T527.649307687 121.481944085 T520.828983621 110.771856381 T513.731239549 100.24325003 T506.389446596 89.8831763498 T498.825602089 79.6839714607 T491.057775505 69.6391337799 T483.105966478 59.7391651836 T475.016802417 49.950722355 T466.840960033 40.2344507364 T458.6374076 30.541461325 T450.498168406 20.7946613209 T442.450976334 10.9715494334 T438.445263059 6.04534676577 " stroke="blue" stroke-width="4.17px" fill="none"/>
<path d="M704.618347236 296.104726927 Q705.221214747 283.421826303 704.25007248 277.14803423 T701.211753526 264.871646027 T696.335565834 253.175542321 T690.33029098 241.996368993 T683.742279914 231.143555184 T676.78807351 220.520902882 T669.494132121 210.128430248 T661.951405276 199.913316456 T654.239619096 189.825265038 T646.327718532 179.893696566 T638.223739759 170.11773024 T629.993679298 160.44726028 T621.681604448 150.847127284 T613.315101537 141.294303298 T604.920817068 131.765887491 T596.510669099 122.251473698 T588.095762987 112.741273222 T579.684834101 103.227585863 T571.277637269 93.7106295516 T562.867695879 84.1961067936 T554.452181379 74.6865237863 T546.034471687 65.1789021506 T537.588088285 55.6968509889 T529.072576751 46.2769280882 T520.479117722 36.928050425 T511.871236142 27.5923575374 T503.299631139 18.223303172 T494.753892576 8.83063970425 T490.487513527 4.12839661432 " stroke="blue" stroke-width="4.17px" fill="none"/>
<path d="M840.639975208 296.104726927 Q844.914675614 308.062174317 847.667642243 313.783540635 T853.573531857 325.015925248 T860.1584919 335.868557448 T867.231633698 346.411483627 T874.652029072 356.714554946 T882.295966323 366.853706451 T890.072913625 376.891547665 T897.932964968 386.864491089 T905.83818234 396.801743906 T913.710201682 406.765166506 T921.503003405 416.790712826 T929.219238992 426.875275091 T936.794982259 437.065158925 T944.196708281 447.382506941 T951.461719439 457.796713569 T958.480978001 468.376145323 T965.150077253 479.180187607 T971.530491664 490.158067231 T977.761115402 501.222520753 T983.934514307 512.319049737 T990.060077538 523.442133854 T993.113333789 529.008935464 " stroke="blue" stroke-width="4.17px" fill="none"/>
<path d="M976.66160318 296.104726927 Q976.190583426 308.794456031 976.566313211 315.132528425 T977.880849872 327.749977353 T980.286090745 340.206820822 T983.697715009 352.428086311 T987.998330945 364.367899517 T992.994598165 376.037719936 T995.635439718 381.811525702 " stroke="blue" stroke-width="4.17px" fill="none"/>
<path d="M24.5101347339 432.12637306 Q16.3843901845 422.367950113 12.152422254 417.634651973 T7.9204543234 412.901353833 " stroke="blue" stroke-width="4.17px" fill="none"/>
<path d="M160.531762706 432.12637306 Q155.424133166 420.500415629 152.650281562 414.789133122 T146.876602922 403.481925816 T140.491484851 392.514458033 T133.18744603 382.147188116 T124.860315837 372.582005672 T115.614446504 363.900085153 T105.654746879 356.03575239 T95.3148135785 348.666030323 T84.8820057015 341.426521536 T74.4792177062 334.144094125 T64.141790603 326.769309721 T53.9198301714 319.236117321 T43.9416428027 311.38639042 T34.3109814217 303.114269436 T24.9951020193 294.486949506 T16.1473911179 285.390053609 T8.7766475031 275.146045908 T5.66244344621 269.613189192 " stroke="blue" stroke-width="4.17px" fill="none"/>
<path d="M296.553408838 432.12637306 Q303.764645725 442.578794653 307.023954958 448.027698308 T313.090032331 459.171816659 T317.893258817 470.894246785 T320.884395887 483.192296339 T322.074494418 495.809327568 T322.131156264 508.503200182 T321.49717014 521.18071044 T320.432218013 533.834110469 T319.228553328 546.475126503 T317.738246898 559.083737909 T315.515858525 571.575391183 T312.107121835 583.787501334 T306.911502987 595.310164401 T299.316264049 605.357558222 T289.351388582 613.026761753 T277.650172597 617.62164699 T265.122837797 619.175021504 T252.496026951 618.318419705 T240.132412196 615.559119481 T228.21552706 611.236111219 T216.793234459 605.715127158 T205.854601563 599.283036054 T195.423963907 592.055241014 T185.543572705 584.091159793 T176.261417998 575.437463501 T167.630020957 566.13467353 T159.692713367 556.232859338 T152.47077974 545.796955036 T145.925610116 534.921360713 T139.985559947 523.702411155 T134.603719763 512.204545023 T129.580156789 500.542264761 T124.662398916 488.834622106 T119.730148686 477.133132006 T114.533167774 465.549527375 T108.828427713 454.208706608 T102.571870285 443.16294968 T95.7940238751 432.428381152 T88.5113966949 422.030426213 T80.7408056893 411.991041326 T72.5661358154 402.276258897 T64.0385280211 392.869988414 T55.1664634226 383.787743781 T46.0258725252 374.973907402 T36.7022747624 366.353493134 T27.2330814811 357.892971512 T17.6557403499 349.554781363 T8.01708819569 341.287291395 T3.18922652004 337.163498555 " stroke="blue" stroke-width="4.17px" fill="none"/>
<path d="M432.575054971 432.12637306 Q441.214497267 441.433113016 445.430833248 446.180351877 T453.733114861 455.78749723 T461.583311673 465.760501946 T468.531605587 476.366740814 T473.787701194 487.861381693 T477.815449254 499.903181682 T482.051474999 511.868702703 T487.207861875 523.453801064 T494.537239902 533.638490895 T504.742117786 540.851484844 T516.835772387 543.833088604 T529.268284859 542.332909483 T540.790631247 537.252114867 T550.787665036 529.552176371 T559.132731336 520.037978238 T565.91815309 509.343623503 T571.713409088 498.047147555 T577.081844295 486.541461475 T582.399758294 475.011336001 T588.723261148 464.042438052 T596.408409904 453.95431626 T604.816115239 444.441818436 T613.383309142 435.068941212 T621.937073097 425.683750934 T630.591034992 416.391264974 T639.232366016 407.087262766 T647.718766846 397.641687667 T656.144564927 388.14153468 T664.54987757 378.623379753 T672.841512386 369.006520616 T680.981885498 359.261232503 T688.991100967 349.407732976 T696.804923871 339.39983446 T704.301721932 329.153356884 T711.359399768 318.602004071 T717.834586565 307.685763501 T723.298541023 296.249423484 T726.627715038 284.089210226 T726.335479752 271.584857979 T721.574431836 260.081504433 T713.782519995 250.101664427 T705.089040095 240.850682815 T696.404123036 231.591092961 T688.015627337 222.059943947 T679.742834401 212.426422232 T671.452834062 202.807474598 T663.179223888 193.174325181 T654.878063708 183.565002796 T646.47800863 174.041871796 T637.997932315 164.589822356 T629.46389558 155.186353183 T620.904510842 145.805930127 T612.343441686 136.427050743 T603.795484661 127.036239682 T595.261906488 117.632389131 T586.743238371 108.215045071 T578.243130641 98.7809567091 T569.763113349 89.3288346249 T561.292784869 79.8680498162 T552.822088633 70.4076100636 T544.359378629 60.9400512586 T535.866495511 51.499697404 T527.296863514 42.1289722406 T518.671771126 32.8091519342 T510.06114215 23.476037887 T501.494793294 14.1021890578 T492.954404803 4.70467664356 T488.690724627 0.0 " stroke="blue" stroke-width="4.17px" fill="none"/>
<path d="M568.596682943 432.12637306 Q578.632422039 424.345907093 583.423816732 420.179951575 T592.822123683 411.644922804 T601.802563142 402.673191472 T610.312845487 393.253981385 T618.385860015 383.455713537 T626.039136482 373.326641303 T633.228030986 362.863522971 T639.88905774 352.057745758 T645.807260409 340.83510444 T650.782106908 329.163872015 T654.684986652 317.096270002 T657.319199496 304.693854594 T658.52306395 292.075406819 T658.336470317 279.394739979 T656.969966389 266.781922067 T654.587789794 254.31847713 T651.374704459 242.038819975 T647.507615207 229.947608859 T643.00802448 218.07839595 T637.842979419 206.483420926 T632.089749894 195.166542967 T625.826972375 184.123557838 T619.112648072 173.347727864 T612.054611559 162.792679319 T604.729124777 152.421073499 T597.185267419 142.206831428 T589.478180359 132.114830025 T581.662432404 122.10653197 T573.765242127 112.162378031 T565.776350918 102.29186633 T557.707903844 92.4861343741 T549.59618174 82.7161429671 T541.438048453 72.9849431315 T533.193458179 63.327094961 T524.84819665 53.7560193223 T516.415452045 44.2619275183 T507.891396399 34.8498137823 T499.331584314 25.4699900341 T490.797785373 16.06648454 T482.290192535 6.63926097843 T478.042971763 1.91971060035 " stroke="blue" stroke-width="4.17px" fill="none"/>
<path d="M704.618347236 432.12637306 Q714.498266256 424.148789249 719.664945793 420.458375536 T730.199082122 413.376173745 T741.110310298 406.889146075 T752.528643834 401.384888155 T764.58324268 397.519515102 T777.097946611 395.632371443 T789.75995318 395.728746523 T802.280477662 397.654904224 T814.46445439 401.15691049 T826.222023486 405.916269447 T837.52660655 411.678111754 T848.407170135 418.213765095 T858.910877963 425.341947883 T869.019750794 433.018479317 T878.707637007 441.221073764 T887.990899526 449.880091185 T896.872789144 458.95038825 T905.270782966 468.467484173 T913.123951347 478.440113187 T920.452688921 488.804920039 T927.405478779 499.429423612 T934.141446273 510.193027931 T940.70058159 521.065633659 T947.158760753 531.998919321 T953.570429984 542.959623323 T959.932066079 553.949491376 T966.210325721 564.987105435 T972.410348429 576.069054663 T978.561373169 587.178295106 T984.63937314 598.32760746 T990.623862904 609.527411512 T993.592453281 615.139958028 " stroke="blue" stroke-width="4.17px" fill="none"/>
<path d="M840.639975208 432.12637306 Q851.483381698 438.734215771 856.680707666 442.380911783 T866.85517748 449.969462988 T876.582672502 458.123718934 T885.780034211 466.867561135 T894.366973495 476.212609129 T902.345142994 486.08364182 T909.85361848 496.32174157 T917.080001514 506.762098117 T924.077158324 517.357538658 T930.876779591 528.0813361 T937.559553961 538.878786564 T944.181507651 549.7137528 T950.708843323 560.605794041 T957.088313371 571.585045944 T963.317502401 582.650382536 T969.431261081 593.780122037 T975.453361962 604.959731225 T981.380572411 616.189963778 T987.151036581 627.501034805 T992.694217739 638.92512079 T995.40654039 644.665928295 " stroke="blue" stroke-width="4.17px" fill="none"/>
<path d="M976.66160318 432.12637306 Q983.547506635 442.795353685 987.010362653 448.116942985 T993.944446838 458.754664251 T997.415675006 464.070796216 " stroke="blue" stroke-width="4.17px" fill="none"/>
<path d="M24.5101347339 568.148001032 Q21.6333474431 555.779510089 20.0837549253 549.622185804 T16.8796728316 537.334892012 T13.4628000817 525.105095465 T9.83709574043 512.935517453 T7.97377457317 506.86576648 " stroke="blue" stroke-width="4.17px" fill="none"/>
<path d="M160.531762706 568.148001032 Q152.848489057 558.037461943 149.353869717 552.73637624 T142.699462591 541.928064454 T136.658220177 530.76301005 T131.154030361 519.322883497 T126.100592792 507.674982654 T121.254261534 495.937568126 T116.407730506 484.200258023 T111.40639641 472.529056812 T105.993719107 461.045758518 T100.003199941 449.854370884 T93.4456809399 438.984211195 T86.3764982064 428.439537034 T78.803170332 418.251330809 T70.7881161513 408.404768726 T62.405450085 398.869097661 T53.6717893092 389.653770334 T44.6374938553 380.731736162 T35.3912976267 372.028390382 T26.0020120767 363.4792075 T16.4882157526 355.068882462 T6.88258002015 346.763132127 T2.06601439196 342.626154512 " stroke="blue" stroke-width="4.17px" fill="none"/>
<path d="M296.553408838 568.148001032 Q290.770504487 579.453119841 286.711936334 584.335763715 T277.255510128 592.56143833 T265.676044469 597.353945375 T253.147783465 598.620405732 T240.614228574 597.010514659 T228.528529276 593.234611024 T217.026265381 587.899784736 T206.126351412 581.412352987 T195.860977474 573.95804904 T186.274147299 565.647776655 T177.414722651 556.565420786 T169.324646007 546.790680318 T161.997924288 536.428817793 T155.375897954 525.600630094 T149.405591812 514.398840835 T143.943644128 502.936908778 T138.764333722 491.343041566 T133.730691477 479.684920138 T128.60575465 468.067585705 T123.113896049 456.620666994 T117.139503716 445.419208035 T110.673315619 434.493539714 T103.714877737 423.875788571 T96.2352235168 413.618793594 T88.2971894925 403.71031664 T79.9663908082 394.1297792 T71.2613878506 384.887646461 T62.2535164305 375.938729694 T53.0125323654 367.230466864 T43.5748663162 358.735221701 T34.0034092997 350.390312038 T24.3678444897 342.119230762 T14.695794536 333.89085018 T4.98081233764 325.713229168 T0.111689215297 321.638243608 " stroke="blue" stroke-width="4.17px" fill="none"/>
<path d="M432.575054971 568.148001032 Q438.738011389 579.250435697 442.352503676 584.470294737 T450.030131571 594.568920309 T458.638934247 603.880336683 T468.259818281 612.127917822 T478.884467141 619.027564499 T490.356559625 624.400060926 T502.530482053 627.798645702 T515.129925068 628.794840859 T527.712676561 627.478978455 T539.937539032 624.173082107 T551.590233772 619.196065387 T562.631775113 612.950517973 T573.114230209 605.799815733 T583.020323551 597.869341161 T592.412178861 589.328453247 T601.405512522 580.367087219 T610.025150414 571.045582494 T618.27290862 561.393041831 T626.213348957 551.484501314 T633.907727964 541.383594285 T641.26286687 531.035354667 T648.184447311 520.392014322 T654.717031468 509.504404328 T661.097182548 498.52494471 T667.517323815 487.568816107 T674.081217274 476.699147328 T681.276027673 466.253506542 T689.414711827 456.522528042 T698.342929768 447.506100592 T707.800935967 439.036727827 T717.651897514 431.030676887 T727.951023389 423.612817222 T738.696806241 416.858425547 T749.941467587 410.990401302 T761.808237862 406.574495762 T774.215783709 404.07565842 T786.866430668 403.562015155 T799.459226245 404.923234277 T811.768821558 407.942443478 T823.678487756 412.303666704 T835.147644425 417.728103157 T846.187932669 423.988181519 T856.806907399 430.93951624 T866.990693728 438.515879246 T876.748226793 446.635244798 T886.096886526 455.22341221 T894.973000994 464.295807988 T903.285911243 473.88687191 T911.038704617 483.937603353 T918.327942346 494.332386387 T925.314783795 504.93466619 T932.081461283 515.678874156 T938.683746775 526.525560949 T945.209284523 537.418812156 T951.687513262 548.340325048 T958.08583427 559.308750816 T964.358100831 570.349692849 T970.537910516 581.442949476 T976.657353542 592.569592551 T982.691949085 603.742468606 T988.632108219 614.965863599 T994.423075987 626.266533 T997.267845703 631.942855875 " stroke="blue" stroke-width="4.17px" fill="none"/>
<path d="M568.596682943 568.148001032 Q578.027865569 559.644669751 582.370573811 555.012774976 T590.78434487 545.508499477 T598.601250578 535.509483885 T605.70980603 524.997132629 T612.021635999 513.988557767 T617.746366614 502.655195434 T623.253748199 491.213085943 T628.671751171 479.728401748 T634.62271601 468.529670322 T641.668861708 457.983597776 T649.640407037 448.112847714 T658.162162498 438.700309468 T666.963726684 429.548921947 T676.049108604 420.679620067 T685.403416361 412.093840807 T694.992680089 403.771028355 T704.831101571 395.745409101 T714.981816996 388.121012922 T725.487113898 380.994328403 T736.349180659 374.425236402 T747.642276987 368.6451152 T759.547248606 364.353911124 T772.00763344 362.197614616 T784.657290632 362.293553836 T797.13060599 364.463947702 T809.191642857 368.356226051 T820.763181307 373.551495302 T831.861547942 379.703941129 T842.539817841 386.566476113 T852.873122432 393.942000571 T862.887595175 401.744631853 T872.587667317 409.935973385 T882.003631153 418.453052428 T891.148162954 427.261045555 T899.976042209 436.384973874 T908.468417958 445.823019031 T916.668349572 455.516782549 T924.506099393 465.503220618 T931.878241394 475.837858896 T938.804498253 486.477819053 T945.41588233 497.318257947 T951.842407135 508.269778235 T958.117761041 519.30866866 T964.289452826 530.40622203 T970.464250116 541.502101764 T976.699196135 552.564340797 T982.945365559 563.620322283 T989.150709395 574.699302213 T995.309942839 585.804009254 T998.377582482 591.36301305 " stroke="blue" stroke-width="4.17px" fill="none"/>
<path d="M704.618347236 568.148001032 Q713.067209594 558.667929403 717.419347856 554.04487669 T726.277201591 544.94833266 T735.369348426 536.084148734 T744.648751765 527.416854507 T754.41034378 519.31638021 T765.001804825 512.360337574 T776.530283904 507.168128425 T788.832070053 504.290140532 T801.455575624 503.995930112 T813.90766095 506.192120327 T825.853884936 510.39822111 T837.161337414 516.127744486 T847.846671883 522.967262865 T858.000892351 530.580773886 T867.692519699 538.778372965 T876.974510959 547.439213281 T885.849898993 556.515730436 T894.262948158 566.021474694 T902.20179942 575.927997087 T909.725875075 586.154636207 T916.845781057 596.666053314 T923.551492578 607.447113613 T929.86979689 618.460028918 T935.807068449 629.683015292 T941.390494046 641.08682015 T946.647896098 652.644579056 T951.568559707 664.349554336 T956.15179476 676.190908505 T960.398563782 688.156973217 T964.277048967 700.24705836 T967.721907584 712.467029888 T970.594027536 724.831825099 T972.746996069 737.340563191 T973.976885018 749.967864379 T973.901172443 762.643092046 T972.206656358 775.198676045 T968.716668034 787.368768804 T963.386549945 798.85200013 T956.403576757 809.419407133 T948.072342213 818.970560321 T938.748907897 827.571610585 T928.765145148 835.40730823 T918.338620925 842.648728446 T907.573396886 849.377431601 T896.540282177 855.660140651 T885.301949887 861.568772553 T873.891797813 867.139213143 T862.365797689 872.467987328 T850.775399199 877.655615403 T839.141705247 882.745665242 T827.484801731 887.782467474 T815.817146993 892.794353022 T804.149465014 897.80622041 T792.500080089 902.860384413 T780.873468868 907.966797175 T769.266344237 913.117340799 T757.650275387 918.247544272 T745.964913823 923.216515737 T734.169615565 927.917487567 T722.239645538 932.26301528 T710.148497985 936.133219119 T697.875396896 939.371570732 T685.403470843 941.692309179 T672.773000587 942.864047093 T660.092815009 942.766359891 T647.498384956 941.299925896 T635.130983663 938.49583648 T623.102368451 934.471011182 T611.49996564 929.342351381 T600.383587984 923.226304434 T589.775087523 916.262400136 T579.677610624 908.573641912 T570.03404142 900.3176296 T556.32927074 887.449960507 " stroke="blue" stroke-width="4.17px" fill="none"/>
<path d="M840.639975208 568.148001032 Q851.439250837 574.828051275 856.512719822 578.645402505 T866.326170138 586.68709411 T875.457626129 595.497021367 T883.909702956 604.963644888 T891.721137709 614.96761158 T898.88791684 625.442611648 T905.426021895 636.323297818 T911.399524346 647.524963357 T916.796347229 659.014741669 T921.586579627 670.770730771 T925.77833944 682.75342174 T929.345420564 694.936009162 T932.271986739 707.288618444 T934.521607305 719.78094821 T935.968609192 732.389116945 T936.471319626 745.067713448 T935.682521353 757.717270756 T933.239015575 770.147090883 T929.044931173 782.096520258 T923.147722444 793.304360485 T915.717683661 803.564676628 T907.061823958 812.829360599 T897.523601293 821.193720531 T887.334748088 828.757840855 T876.641622615 835.594455769 T865.583645706 841.830618565 T854.27817276 847.608710291 T842.786278709 853.008039372 T831.151295337 858.093004173 T819.406911016 862.920756883 T807.577969787 867.538079848 T795.692993262 872.009988902 T783.768380685 876.375075849 T771.805984464 880.635628954 T759.802789899 884.779553093 T747.736513627 888.734658896 T735.58637056 892.423217932 T723.345523137 895.797449011 T711.009240457 898.802143154 T698.565454638 901.316022219 T685.9927722 903.02201596 T673.321993942 903.616983502 T660.665526432 902.887117181 T648.196424391 900.625492295 T636.124304866 896.774212061 T624.635330172 891.422373598 T613.886627964 884.704930169 T603.969202253 876.803108876 T594.823276606 868.008118916 T586.387449198 858.528828203 T578.710490984 848.425966613 T571.799682196 837.7816575 T565.660666316 826.675191127 T560.478409312 815.098031894 T556.58520022 803.035741929 T554.428901442 790.562880592 T554.541419246 777.928242421 T557.249331081 765.59641823 T562.35586416 754.028902408 T569.215877056 743.3735515 T577.147786334 733.46944223 T585.516868086 723.919060878 T593.938321184 714.414617391 T602.338090228 704.891059611 T610.645543143 695.287203641 T618.824126679 685.573329255 T626.907052489 675.779465413 T634.92511229 665.932417528 T642.881738483 656.035649781 T650.801566257 646.109347955 T658.722106844 636.183613656 T666.63575993 626.252403861 T674.531960441 616.307296477 T686.276199475 601.625454012 " stroke="blue" stroke-width="4.17px" fill="none"/>
<path d="M976.66160318 568.148001032 Q982.846715832 579.238331492 985.916770868 584.796000465 T992.011279049 595.936295958 T995.035732195 601.518922478 " stroke="blue" stroke-width="4.17px" fill="none"/>
<path d="M24.5101347339 704.169665325 Q37.2075458759 704.177565294 43.556251447 704.183549294 T56.0527128057 702.610138824 T62.0387825636 694.686933132 T60.7186886822 682.101129481 T58.4120067323 669.614856358 T56.1430085421 657.121137288 T53.9001801338 644.622433064 T51.6294929847 632.128673131 T49.2808594759 619.649346533 T46.8286546509 607.189919683 T44.2958338216 594.746519782 T41.7006123184 582.315977762 T39.0272265254 569.902032486 T36.1890673584 557.525242035 T33.1237704652 545.202604963 T29.8439757961 532.935331236 T26.3508819671 520.727064374 T22.6295426002 508.586618632 T18.4844198448 496.587801398 T13.7572055889 484.805756587 T8.41383008144 473.292008793 T5.57461758521 467.612885743 " stroke="blue" stroke-width="4.17px" fill="none"/>
<path d="M160.531762706 704.169665325 Q149.074919092 698.692971033 143.471353115 695.707463825 T132.449697902 689.411760689 T121.875852879 682.39598901 T111.922672998 674.531361133 T102.770568123 665.751744331 T94.5631905617 656.084425279 T87.3663370666 645.640475721 T81.1230188967 634.594553075 T75.6685716428 623.133432581 T70.8165378784 611.401706371 T66.4100623593 599.493824476 T62.3305002653 587.469259133 T58.4885365458 575.366202604 T54.8123450471 563.211532945 T51.2397793471 551.025846828 T47.7060233794 538.828793155 T44.1402498366 526.641118425 T40.4790047158 514.481894366 T36.5395535642 502.411959251 T32.0912536121 490.521998707 T27.0814384002 478.857108391 T21.3969113628 467.510905771 T14.941474488 456.583870846 T7.80900119912 446.08426964 T4.08767999307 440.939818981 " stroke="blue" stroke-width="4.17px" fill="none"/>
<path d="M296.553408838 704.169665325 Q284.363920294 700.609939345 278.264554085 698.845985258 T266.073167732 695.292897067 T253.917222274 691.621581756 T241.86932478 687.616697069 T230.000965431 683.109092868 T218.330613807 678.109547615 T206.864571723 672.657561156 T195.63025298 666.743835137 T184.655598041 660.36095993 T173.97941664 653.49208227 T163.668849431 646.087473214 T153.806364825 638.097975886 T144.460828758 629.509797124 T135.68387252 620.341983115 T127.519536169 610.624449318 T119.984691132 600.410370694 T113.067187801 589.767346461 T106.726037142 578.769863337 T100.906665809 567.486560246 T95.5605661739 555.970805111 T90.6310219102 544.269843378 T86.0339301303 532.433501603 T81.687930235 520.502276776 T77.5071940567 508.511736348 T73.2370701845 496.553603954 T68.6523459421 484.712913224 T63.6033396201 473.065672414 T57.8551588104 461.751635493 T51.3116418227 450.878363489 T44.0813178848 440.445355843 T36.3119799777 430.405587308 T28.1269584204 420.699442633 T19.6418288497 411.253402162 T10.9350279681 402.01055661 T6.53481794149 397.433223833 " stroke="blue" stroke-width="4.17px" fill="none"/>
<path d="M432.575054971 704.169665325 Q438.048907091 692.712930676 444.304588258 693.796697443 T456.894097857 695.320819371 T469.572823757 695.994595913 T482.265255421 696.37445729 T494.960324381 696.373485685 T507.594153827 695.334058629 T520.059527787 692.981792951 T532.221667797 689.396342129 T543.944887919 684.557438658 T555.177176053 678.657805456 T565.946947114 671.941978343 T576.267495979 664.554263415 T586.135739844 656.569719459 T595.64015155 648.151140316 T604.865108667 639.426600826 T613.805290066 630.410911161 T622.500159271 621.156837665 T631.035871343 611.755298082 T639.432848158 602.229738069 T647.673028751 592.568343993 T655.796303425 582.807923353 T663.869263469 573.005778164 T671.901624938 563.170366843 T679.914681426 553.319169204 T687.994252019 543.522771924 T696.108092132 533.754478556 T704.163508798 523.937973812 T712.169110257 514.08075869 T720.231173793 504.270136358 T728.479939927 494.616588903 T736.960692733 485.1664787 T745.923679617 476.185488173 T755.966492364 468.504608352 T767.2910342 462.901546338 T779.501807259 459.650227879 T792.117140448 458.729829291 T804.712750957 459.96142082 T816.992099377 463.075445538 T828.768737364 467.76027805 T839.917645639 473.796140313 T850.381399601 480.963774706 T860.140766912 489.067768235 T869.331953932 497.823731951 T878.126199297 506.979673305 T886.553650014 516.474957199 T894.657383616 526.249184623 T902.502434098 536.233072228 T910.144046761 546.374020522 T917.576155882 556.669135119 T924.724138535 567.162729625 T931.554469795 577.866165919 T938.123248522 588.732918179 T944.471718002 599.729833777 T950.610974513 610.845130862 T956.540945412 622.07333394 T962.223801651 633.428336059 T967.647448107 644.909596933 T972.807998357 656.511327793 T977.675650451 668.238772582 T982.224016675 680.093565779 T986.40638733 692.081804886 T990.165864478 704.20894724 T993.436851136 716.475982605 T994.939189127 722.645004746 " stroke="blue" stroke-width="4.17px" fill="none"/>
<path d="M568.596682943 704.169665325 Q578.333203907 696.01766019 583.037903252 691.753910775 T592.324098748 683.094291777 T601.374689023 674.188320875 T610.192943029 665.052360994 T618.793275939 655.710434395 T627.248394708 646.236146996 T635.614575265 636.683177723 T643.875985889 627.039658461 T652.039010119 617.312472173 T660.155406372 607.546244602 T668.231962264 597.747100493 T676.269063715 587.91551203 T684.336230449 578.108717665 T692.500766569 568.382975164 T700.784610381 558.758731373 T709.212687648 549.26080536 T717.822627647 539.927796872 T726.582412802 530.7345293 T735.444870312 521.640272969 T744.458734812 512.696878518 T754.013629135 504.360083349 T764.532882649 497.308926109 T776.07597213 492.162939723 T788.408386549 489.447285691 T801.03189212 489.407720014 T813.431011333 491.885184308 T825.289354975 496.337913805 T836.503406212 502.251768937 T847.095539209 509.235040076 T857.136109091 516.996580453 T866.693110072 525.350585864 T875.846958388 534.147189868 T884.654533816 543.291495794 T893.140153729 552.735838225 T901.235587823 562.514376581 T908.912977357 572.626384429 T916.233288297 583.000337538 T923.18317242 593.625505117 T929.746393928 604.494159726 T935.985389816 615.553244446 T941.932740646 626.771590724 T947.570285569 638.148871663 T952.906142486 649.670867319 T957.935662218 661.329704965 T962.657973045 673.116522108 T967.055077566 685.028077034 T971.065501312 697.074766831 T974.634471164 709.259179419 T977.664626816 721.58693558 T980.016674564 734.060141973 T981.536338004 746.658921549 T981.855533069 759.331988075 T980.602071339 771.940747037 T977.589876766 784.240081471 T972.733248307 795.93088221 T966.150522048 806.748881673 T958.168647737 816.595702548 T949.117063156 825.475848724 T939.273284223 833.482294662 T928.937473435 840.853219886 T918.283974933 847.758882344 T907.355248779 854.219949081 T896.197859388 860.280169582 T884.86514517 866.006412087 T873.397713782 871.459424634 T861.848322486 876.737693501 T850.249043341 881.905580734 T838.61623927 886.997737231 T826.96950583 892.058057761 T815.320629409 897.113474863 T803.686063736 902.201617812 T792.086021835 907.36788873 T780.517425443 912.604369486 T763.43256227 920.45225306 " stroke="blue" stroke-width="4.17px" fill="none"/>
<path d="M704.618347236 704.169665325 Q709.840880461 692.594667234 712.716160402 686.933694817 T718.737562089 675.757681476 T725.292148114 664.885762455 T732.370865292 654.34786229 T739.974957643 644.183008645 T748.21051176 634.529178562 T757.266663795 625.650998298 T767.27604242 617.879267699 T778.299105099 611.66208753 T790.258877077 607.602656736 T802.799741709 606.195131992 T815.35856742 607.517527761 T827.432552971 611.2751071 T838.705263747 617.034624819 T849.045269691 624.359653039 T858.41911852 632.895174423 T866.821598072 642.394537413 T874.263168994 652.667184771 T880.727795258 663.581786326 T886.210845847 675.023102415 T890.712865588 686.884978342 T894.194045901 699.085000178 T896.618246698 711.538247799 T897.880298509 724.158202925 T897.835404893 736.838606432 T896.2902073 749.415602072 T892.939657967 761.62165331 T887.65666728 773.121756064 T880.635501828 783.66012387 T872.193431628 793.108214246 T862.639645117 801.441564529 T852.276465931 808.75802537 T841.351190338 815.214188678 T830.016660036 820.92621124 T818.372105896 825.980429725 T806.488881893 830.447271903 T794.41765679 834.380166988 T782.203178918 837.845819776 T769.873252536 840.874558882 T757.441289429 843.452491258 T744.919693457 845.549433574 T732.317944581 847.083298797 T719.652687221 847.91343116 T706.964102251 847.849123597 T694.3474524 846.589469018 T682.019596354 843.698897644 T670.396117879 838.736609371 T660.031622032 831.525772023 T651.517834643 822.217610981 T645.356194887 811.210647894 T641.765586384 799.105416604 T640.580849843 786.511449652 T641.473301156 773.881360773 T644.112816968 761.485719362 T648.083041676 749.4376221 T653.000767768 737.737786339 T658.517760982 726.302408848 T664.330013264 715.012490668 T670.314512108 703.812804662 T676.469514075 692.706029554 T682.834963947 681.718879952 T689.446420668 670.878124946 T696.306236065 660.192735995 T703.4101605 649.66810687 T710.761126952 639.314598336 T718.40819695 629.178956415 T726.408495441 619.320181162 T734.786158194 609.780705399 T743.57293945 600.617767578 T753.002414957 592.136796842 T763.327864981 584.788985838 T774.575604591 578.979080846 T786.624337483 575.133559871 T805.268672675 573.421811411 " stroke="blue" stroke-width="4.17px" fill="none"/>
<path d="M840.639975208 704.169665325 Q843.445027149 716.554600916 843.47887897 722.903805911 T842.161073356 735.456747507 T838.015133362 747.36179177 T831.022916302 757.826526417 T821.682265503 766.313562877 T810.781407171 772.712374228 T798.903776708 777.08015806 T786.479677248 779.52432671 T773.835413828 779.926789263 T761.370407058 777.906385841 T749.694934075 773.151367327 T739.919040392 765.328818135 T733.411454643 754.664886226 T730.688344448 742.405805311 T731.080264628 729.777432633 T733.427817567 717.316929753 T736.993700074 705.142097013 T741.590710131 693.316615425 T747.227083679 681.953708797 T753.954996837 671.203122402 T761.808137978 661.251304585 T770.859277618 652.38852926 T781.229049192 645.161932836 T792.894633593 640.399545557 T805.374296167 638.820632351 T817.830113548 640.630147465 T829.494263242 645.438381805 T839.91294198 652.593374545 T848.924754304 661.482437697 T856.510940059 671.626824066 T862.670409593 682.701663323 T867.361556405 694.473933626 T870.560244727 706.739525204 T872.219038424 719.303236183 T872.184442008 731.970582041 T870.324407955 744.496545698 T866.323536815 756.481188957 T860.057517585 767.458459058 T851.922801577 777.151956973 T842.412891674 785.523308831 T831.920134838 792.63693116 T820.715817815 798.579914305 T808.999564648 803.444261125 T796.913029951 807.306156375 T784.571072007 810.261997837 T772.0491673 812.317043077 T759.406538356 813.395688484 T746.718806946 813.451623896 T734.092749775 812.290582721 T721.749874708 809.473344851 T710.188197599 804.411952831 T700.343147407 796.609798271 T693.239604349 786.261365694 T689.366758108 774.291759617 T688.436949931 761.694387506 T689.685290302 749.088152902 T692.453203308 736.712234171 T696.24380815 724.599157395 T700.673284383 712.701250345 T705.580082184 700.991353475 T710.957663649 689.490887504 T716.856997197 678.24992189 T723.289796575 667.30542304 T730.244402518 656.685059005 T737.720588016 646.425591882 T745.779882023 636.621031301 T754.596592357 627.502260662 T764.338597897 619.392865416 T775.079014218 612.686754356 T786.800007366 607.966845302 T799.232733229 605.791025882 T811.843535287 606.362547769 T824.096005652 609.473891493 T840.957063615 617.663135447 " stroke="blue" stroke-width="4.17px" fill="none"/>
<path d="M976.66160318 704.169665325 Q979.949443105 716.435284145 981.276565234 722.644360036 T983.555370283 735.131023617 T984.971625854 747.740899472 T985.152417096 760.416145299 T983.74442471 773.008078236 T980.565132174 785.264543988 T975.543076551 796.885434542 T968.82194647 807.619312958 T960.733486141 817.379506587 T951.60417313 826.181070774 T941.701662015 834.114709873 T931.316671651 841.416533069 T920.641198523 848.289451518 T909.709348703 854.745142645 T898.546547379 860.795338357 T887.212925119 866.520146156 T875.750978307 871.984709002 T864.207289517 877.275363567 T852.614348508 882.457470745 T840.988935903 887.566498669 T829.34966657 892.643999362 T817.70958 897.719611326 T806.086110605 902.832997854 T794.502921971 908.036825405 T782.956327446 913.321632178 T771.436302242 918.664099643 T759.922587932 924.020260387 T748.350177762 929.247006929 T736.657851512 934.198053637 T724.809305648 938.75967728 T712.779968541 942.81730107 T700.564682512 946.270931376 T688.142290172 948.843597106 T675.538153145 950.271493781 T662.857468144 950.462237168 T650.22875949 949.322189934 T637.789432159 946.85502057 T625.649549971 943.177212756 T613.893097766 938.410444173 T602.583238976 932.65963004 T591.736636177 926.070910702 T581.365534321 918.755884569 T571.454138011 910.82482431 T561.89950475 902.463351954 T552.61836251 893.798593435 T543.585547165 884.874843063 T534.712775428 875.790532634 T525.909134095 866.63909971 T517.157313606 857.43805135 T508.528898917 848.122099304 T500.171509346 838.563990511 T492.129409122 828.7382453 T484.376135621 818.682965132 T476.92630889 808.401073902 T469.775282025 797.908716604 T462.902679121 787.23183601 T456.285944404 776.394150187 T449.877880102 765.431436007 T443.590160928 754.398811641 T437.364504183 743.331055115 T431.191502546 732.233796292 T424.788990923 721.271136594 T417.602707041 710.821647978 T408.663379202 701.970540998 T397.444165744 696.544624436 T384.997024708 694.196463109 T372.366427326 692.894085135 T359.714831463 691.803181156 T347.063421749 690.710125116 T334.431889083 689.415111366 T321.827797459 687.871539169 T309.258038918 686.073887628 T296.734881112 683.975229112 T278.282778496 680.374468695 " stroke="blue" stroke-width="4.17px" fill="none"/>
<path d="M24.5101347339 840.191293297 Q24.492555033 852.889939377 24.1240351051 859.228547516 T23.0689079962 871.879230797 T21.4093878654 884.465624675 T19.203498622 896.968387848 T16.4991849048 909.373300372 T13.333948865 921.668920912 T9.73964462998 933.84627801 T7.83923901107 939.904482657 " stroke="blue" stroke-width="4.17px" fill="none"/>
<path d="M160.531762706 840.191293297 Q150.677686572 848.200626811 146.379467868 852.873794383 T138.381575689 862.706985541 T131.475967713 873.347480876 T125.400019919 884.491594687 T119.918186106 895.942481543 T114.868489672 907.592374972 T110.092858595 919.358316219 T105.481002046 931.189709163 T100.946692318 943.051212792 T96.3944033497 954.905760817 T91.7671645621 966.731197003 T87.1099058927 978.544919441 T82.4785809142 990.368811954 T80.1693564457 996.283273488 " stroke="blue" stroke-width="4.17px" fill="none"/>
<path d="M296.553408838 840.191293297 Q285.259776765 834.385488117 279.452654923 831.81823432 T267.696139156 827.033304889 T255.674574893 822.960335182 T243.423257741 819.645054216 T230.981406052 817.140128449 T218.396410559 815.510428431 T205.724951269 814.89019915 T193.05695162 815.47550512 T180.547577899 817.507013901 T168.453851505 821.255540057 T157.126422094 826.893393715 T146.909637504 834.358119719 T138.00383005 843.359544038 T130.378652955 853.485905765 T123.818246378 864.345075871 T118.064544671 875.658812003 T112.8919901 887.253278523 T108.129979659 899.023741822 T103.634243572 910.899501717 T99.2629092938 922.821989474 T94.916019517 934.753448691 T90.5227650952 946.66783671 T86.0365452924 958.547446705 T81.4605564179 970.39280534 T76.8604499372 982.228865622 T72.2855143919 994.074678279 T70.0042939509 1000.0 " stroke="blue" stroke-width="4.17px" fill="none"/>
<path d="M432.575054971 840.191293297 Q424.85725301 830.10711922 420.900614886 825.141362225 T412.849168636 815.323153766 T404.470125659 805.784649609 T395.697609749 796.607591728 T386.535162271 787.819384846 T376.965616684 779.478788384 T366.953327783 771.676270607 T356.521868349 764.443059095 T345.73738019 757.745075014 T334.66803459 751.52779042 T323.363233596 745.74833663 T311.871548395 740.34836284 T300.237264215 735.261654597 T288.479241097 730.46823497 T276.602854653 725.975904042 T264.632004557 721.740285781 T252.615552572 717.634299653 T240.630782187 713.438344684 T228.740720624 708.982335452 T216.956536805 704.252705803 T205.277195561 699.269913933 T193.729257133 693.991145642 T182.337474757 688.383139338 T171.135754736 682.406467819 T160.195187709 675.966730997 T149.60256437 668.972325555 T139.450196308 661.355248198 T129.837078306 653.070582608 T120.865601225 644.09680818 T112.607409611 634.462432906 T105.078448689 624.246365669 T98.2507144296 613.547119991 T92.0687072825 602.46041262 T86.4555886995 591.073510972 T81.3229153508 579.460824581 T76.5855491808 567.680513563 T72.169593699 555.775414817 T67.999572421 543.781480014 T63.9898932701 531.732651777 T60.0628459778 519.656515868 T56.1159307177 507.586933755 T51.8885029991 495.615240882 T47.1717675525 483.828277886 T41.8412862471 472.309459243 T35.7358089136 461.184992064 T28.8730787003 450.508293079 T21.4415144055 440.215171634 T13.6026749331 430.227456631 T5.41120627476 420.526746589 T1.22952573236 415.748965722 " stroke="blue" stroke-width="4.17px" fill="none"/>
<path d="M568.596682943 840.191293297 Q562.139706936 829.256900959 559.327465569 823.564383148 T554.272413955 811.931905973 T550.55861588 799.815405876 T548.691946307 787.301918723 T549.250608043 774.68781139 T552.528709213 762.501864211 T558.209640403 751.203909856 T565.546711535 740.867599645 T573.804215307 731.228348183 T582.389088795 721.87133446 T590.995482889 712.534025257 T599.559680251 703.158106091 T608.011620872 693.681339736 T616.304658613 684.065234275 T624.480681471 674.348971736 T632.583025767 664.571189326 T640.615564304 654.735955072 T648.598437462 644.860303851 T656.564902294 634.971386131 T664.515726096 625.069910184 T672.446159805 615.152075854 T680.385147274 605.241106324 T688.381595666 595.376596783 T696.489424539 585.603636078 T704.750303958 575.95998742 T713.187434408 566.470233789 T721.861173465 557.197665739 T730.83767202 548.218325011 T740.08966156 539.522100553 T749.714729399 531.248022738 T759.999281194 523.831983698 T771.14178777 517.816224359 T783.112837635 513.745575836 T795.633098785 512.08053424 T808.231442501 513.002416909 T820.481887932 516.188375044 T832.156062414 521.114005078 T843.19940168 527.350268893 T853.675377893 534.511527126 T863.658232599 542.350044243 T873.199034104 550.72371388 T882.275390082 559.596802296 T890.841026692 568.96476701 T898.913687083 578.76200423 T906.529965363 588.919203077 T913.707913415 599.390947812 T920.463494625 610.140730591 T926.808568027 621.137791475 T932.719942217 632.373662971 T938.239623236 643.808395753 T943.416391124 655.402281126 T948.235771684 667.149194345 T952.700688812 679.035532934 T956.801862315 691.051984919 T960.519351582 703.192611702 T963.809007592 715.455352027 T966.517225891 727.856759508 T968.482374933 740.396007824 T969.436872783 753.043703645 T968.986374787 765.709642037 T966.868674622 778.198775494 T962.929895422 790.230073972 T957.170055348 801.504283018 T949.776864925 811.786546545 T941.115448002 821.046218123 T931.598600656 829.437383466 T921.49134414 837.11391944 T910.948299916 844.18366516 T900.079649847 850.745324835 T888.970677277 856.893262231 T877.663388246 862.66862983 T866.19535755 868.119644684 T854.629330917 873.361246799 T837.412211369 880.914125558 " stroke="blue" stroke-width="4.17px" fill="none"/>
<path d="M704.618347236 840.191293297 Q692.14613061 837.804122469 686.186884424 835.612961673 T674.861697878 830.027592866 T665.105890093 822.046118093 T657.574904236 811.940950075 T652.680669201 800.320558944 T650.452265046 787.886570903 T650.561307318 775.232700394 T652.564299027 762.721528748 T655.996826428 750.511255113 T660.461344018 738.632462356 T665.607701565 727.026490938 T671.114960565 715.584947839 T676.83584562 704.248510647 T682.788072638 693.032289189 T689.018714536 681.968518969 T695.533646349 671.069685571 T702.320782032 660.338177146 T709.372730121 649.77882448 T716.751864048 639.44703178 T724.509506369 629.396146537 T732.643196289 619.647562229 T741.175416939 610.246585633 T750.289438515 601.42068137 T760.238958985 593.565074895 T771.121465781 587.086891558 T782.888478518 582.446517937 T795.299592972 580.061258538 T807.936237916 580.136971113 T820.364405406 582.512514459 T832.262975327 586.84258729 T843.449095179 592.796812001 T853.861907963 600.032684078 T863.493259456 608.286489847 T872.351394684 617.369551718 T880.433771128 627.150466875 T887.741496601 637.525173659 T894.307642005 648.386182551 T900.107853644 659.673580913 T905.151248264 671.321404005 T909.487731875 683.250693 T913.07860371 695.42422724 T915.877499123 707.803759978 T917.809086918 720.345759664 T918.735489936 732.999021784 T918.512474723 745.680978044 T916.811220963 758.234591592 T913.32789767 770.408970311 T908.057746702 781.922357726 T901.161037542 792.546844273 T892.907622231 802.164711337 T883.601204631 810.778855572 T873.52102594 818.483359251 T862.876644183 825.393816173 T851.812528908 831.615177878 T840.437917613 837.252831767 T828.842888107 842.425894841 T817.088842215 847.228077078 T805.207216366 851.706233464 T793.221991959 855.900063614 T781.150721454 859.839805339 T769.003965385 863.540477661 T756.783766846 866.990294189 T744.484468734 870.145196706 T732.099732912 872.943856029 T719.626717208 875.314972668 T707.068054945 877.173644658 T694.42925794 878.329201256 T681.745885133 878.451169511 T669.12682897 877.234701429 T656.781711038 874.402117642 T645.006571321 869.753830432 T634.106185171 863.316717852 T624.297470296 855.304605729 T611.952302421 841.181531696 " stroke="blue" stroke-width="4.17px" fill="none"/>
<path d="M840.639975208 840.191293297 Q829.030253576 845.335934645 823.151823164 847.735400367 T811.335594528 852.383415165 T799.412298613 856.750263714 T787.401975915 860.87228587 T775.317375348 864.771419939 T763.16700527 868.460759892 T750.946416273 871.908996426 T738.643404267 875.04904337 T726.252303068 877.818935909 T713.771414636 880.147556164 T701.204661715 881.949657112 T688.555703716 882.941112288 T675.87427412 882.770327673 T663.300374905 881.179237618 T651.063391203 877.914353005 T639.461147299 872.848820311 T628.735046267 866.111381788 T619.052472102 857.942123847 T610.578511453 848.524362088 T603.347520104 838.111131605 T597.341373528 826.945370063 T592.727891583 815.143143441 T589.797261918 802.823341731 T588.831272791 790.205266254 T589.983360668 777.604761397 T593.159120919 765.349194606 T598.020975162 753.644982081 T604.12077269 742.522243588 T611.036559821 731.878452059 T618.307795609 721.467809497 T625.648564745 711.105983295 T633.020702204 700.766404131 T640.396689764 690.429567255 T647.771578592 680.091949463 T655.173182028 669.773482285 T662.623193204 659.489911177 T670.128254451 649.246484623 T677.703035193 639.054544073 T685.362754222 628.92634356 T693.130348688 618.880770364 T701.031252858 608.939830895 T709.078914841 599.117359177 T717.350000657 589.483792061 T725.951613907 580.145381856 T734.911222874 571.149932456 T744.230017092 562.527765667 T754.146693669 554.623985272 T764.922151346 547.958416035 T776.542696844 542.93955445 T788.826748924 539.915301074 T801.44521486 539.155628261 T814.001080353 540.694408264 T826.169375188 544.208076064 T837.781366926 549.290700385 T848.783244976 555.601334009 T859.165202479 562.892703367 T868.9303631 570.995982948 T878.108637757 579.761813396 T886.708453083 589.096289506 T894.709632376 598.949180644 T902.132316016 609.246808249 T909.04431661 619.895662114 T915.457656639 630.851461552 T921.356063983 642.093426013 T926.743860925 653.588847808 T931.604121554 665.316937308 T935.981085695 677.235211749 T939.907969539 689.308879485 T943.348378748 701.529804458 T946.270295747 713.884647524 T948.567443251 726.368514334 T950.104541106 738.967239428 T950.646351845 751.64043308 T948.998382014 770.335355314 " stroke="blue" stroke-width="4.17px" fill="none"/>
<path d="M976.66160318 840.191293297 Q965.802106179 846.773293122 960.21606542 849.791444454 T948.957229532 855.661339267 T937.583762371 861.308691048 T926.170922492 866.876353029 T914.712716814 872.349560438 T903.192364715 877.69088377 T891.632040588 882.945507213 T880.037356138 888.123655325 T868.412433875 893.233809223 T856.782444736 898.332467303 T845.170943341 903.472949816 T833.604190274 908.71302642 T822.097985475 914.084696529 T810.657795359 919.595533216 T799.295342752 925.264659854 T788.006141926 931.078764542 T776.773357774 937.00123501 T765.58762838 943.012239612 T754.356869163 948.937198117 T742.967856316 954.549808196 T731.375868751 959.727465965 T719.550477968 964.342718593 T707.484455949 968.282732731 T695.184458644 971.403747106 T682.670907927 973.481239154 T670.018136149 974.378512172 T657.34284492 974.006450879 T644.774098846 972.316111789 T632.427410001 969.406562328 T620.378381995 965.430898445 T608.672090053 960.53215498 T597.340152211 954.817735187 T586.415852764 948.357358561 T575.921822398 941.21733036 T565.789095293 933.567272902 T555.927988642 925.569071989 T546.319880764 917.268438473 T536.901061135 908.751945118 T527.5744237 900.134168713 T518.292688962 891.467957327 T509.08648434 882.721929013 T500.093535745 873.75896937 T491.385276037 864.518330361 T482.92643855 855.048465129 T474.758945616 845.327544333 T466.909975796 835.346832606 T459.306517939 825.176921165 T451.87829297 814.877976899 T444.48258046 804.555369048 T436.932441718 794.345985003 T429.15986664 784.304933859 T421.129316716 774.469817651 T412.730106117 764.95030066 T403.877183052 755.852169825 T394.532536866 747.262306644 T384.65420692 739.294679518 T374.206607033 732.09520178 T363.196134362 725.79168948 T351.714528431 720.388001796 T339.916674034 715.700532556 T327.929715266 711.515510418 T315.820670198 707.694132019 T303.645392517 704.086824617 T291.437734043 700.590207584 T279.216890795 697.139691863 T267.005264176 693.656904315 T254.83116695 690.046173593 T242.766052973 686.094100652 T230.884454365 681.62203723 T219.208164144 676.637084219 T207.742403553 671.184607417 T196.510037101 665.267240148 T185.541792942 658.873677282 T169.832768374 648.552476896 " stroke="blue" stroke-width="4.17px" fill="none"/>
<path d="M24.5101347339 976.212921269 Q19.8587783401 988.02884117 17.5331001432 993.936801121 T15.2074219463 999.844761071 " stroke="blue" stroke-width="4.17px" fill="none"/>
<path d="M160.531762706 976.212921269 Q154.462734194 987.367386764 151.534460899 993.001117909 T148.606187604 998.634849055 " stroke="blue" stroke-width="4.17px" fill="none"/>
<path d="M296.553408838 976.212921269 Q286.282196187 968.745943321 280.767236988 965.59975801 T269.35165482 960.109243312 T257.23336588 956.478871633 T244.670118003 955.409451937 T232.24659061 957.462372357 T220.68040053 962.491292781 T210.270039461 969.694720503 T200.914596651 978.250786347 T192.433889247 987.688143661 T188.386508175 992.580240256 " stroke="blue" stroke-width="4.17px" fill="none"/>
<path d="M432.575054971 976.212921269 Q426.127082205 965.273116998 422.966463561 959.766366502 T416.640177556 948.755771245 T410.19970522 937.812298483 T403.527069144 927.009045628 T396.601988199 916.366007774 T389.408185726 905.902962085 T381.901099545 895.663240344 T374.022210862 885.70762691 T365.744723347 876.081233328 T357.063302251 866.817875098 T347.964099926 857.965515019 T338.429137134 849.585391472 T328.462654432 841.723578527 T318.090603672 834.405083672 T307.342532554 827.650991651 T296.253990937 821.471109323 T284.864278898 815.865236919 T273.202826089 810.849646557 T261.298290331 806.441618286 T249.18835538 802.632598344 T236.911022814 799.402337388 T224.497492968 796.742944529 T211.965581633 794.724048457 T199.335901374 793.469224663 T186.652020064 793.132685989 T173.998558174 793.968820512 T161.547408131 796.311152206 T149.594482792 800.471720763 T138.577385952 806.668193025 T128.931887158 814.839820957 T120.822668981 824.561504509 T114.115214018 835.317520998 T108.496883272 846.694620328 T103.630520598 858.419154842 T99.2629092938 870.3412249 T95.1801508905 882.365249958 T91.2366498698 894.435930235 T87.3511001152 906.525497794 T83.4380366758 918.606130216 T79.4350043953 930.657178616 T75.3090594954 942.666584192 T71.0337961032 954.623541239 T66.5764157271 966.513593722 T62.0098523327 978.362620849 T57.4287965816 990.206036274 T55.134627456 996.12632744 " stroke="blue" stroke-width="4.17px" fill="none"/>
<path d="M568.596682943 976.212921269 Q558.402367862 968.641336836 553.402581979 964.727855697 T543.496763319 956.78397388 T533.732015857 948.666238264 T524.051775928 940.447764425 T514.434359481 932.155739151 T504.957865822 923.704661171 T495.747948442 914.964843867 T486.823064435 905.933417827 T478.184086092 896.628543899 T469.913218206 886.996956315 T462.021476183 877.050477786 T454.406575858 866.889356196 T446.947942819 856.612132304 T439.481922855 846.340320344 T431.889635056 836.161746179 T424.125400347 826.114002762 T416.157716468 816.227037333 T407.895302457 806.587177482 T399.23999212 797.299483716 T390.191263332 788.394202927 T380.744217205 779.91430368 T370.857651314 771.953278022 T360.535116106 764.565899071 T349.837686513 757.730473692 T338.835413465 751.395697492 T327.582797667 745.515714328 T316.129068638 740.03614154 T304.519909992 734.892707889 T292.777714053 730.060932551 T280.915002727 725.532443374 T268.956592813 721.262028928 T256.932431548 717.17937041 T244.918667369 713.066937181 T232.993010543 708.706926191 T221.179851091 704.051020505 T209.477127756 699.12314704 T197.897462327 693.914034682 T186.473044907 688.373187193 T175.235275602 682.464128511 T164.242151081 676.113861107 T153.574305509 669.233787284 T143.318892796 661.755086508 T133.57356382 653.625578123 T124.439492667 644.816608851 T115.993735815 635.346021725 T108.264932921 625.280412574 T101.236412326 614.712279138 T94.8624450153 603.735158864 T89.0739834447 592.436741408 T83.7880688604 580.893315951 T78.9203622842 569.166472739 T74.3971306732 557.301899926 T70.1457487961 545.336702395 T66.0801342334 533.306702417 T62.1187810991 521.241802965 T58.1841970548 509.168102312 T54.0142665811 497.176068722 T49.3709554429 485.359786739 T44.1483677357 473.79062055 T38.1655487696 462.600189766 T31.3999246107 451.86221381 T24.0341752291 441.522468928 T16.242136262 431.498207488 T8.095198003 421.760074749 T3.93520151313 416.963399789 " stroke="blue" stroke-width="4.17px" fill="none"/>
<path d="M704.618347236 976.212921269 Q692.268589208 979.169107787 685.983464766 980.06970424 T673.356381508 981.275856961 T660.674625017 981.234105172 T648.065511918 979.882175324 T635.652753907 977.273950653 T623.521420938 973.558822297 T611.722440568 968.889068964 T600.28329016 963.391762109 T589.208301077 957.190141246 T578.526517054 950.334620889 T568.221895252 942.91923791 T558.213610818 935.106295807 T548.457410305 926.980133558 T538.903687357 918.61562834 T529.466866922 910.118694218 T520.087735556 901.558015519 T510.757053644 892.944561396 T501.611993192 884.137185738 T492.76543522 875.029157241 T484.174468484 865.678990158 T475.862759688 856.080836695 T467.881623161 846.206111677 T460.182456501 836.108698342 T452.669302326 825.871519119 T445.21906414 815.588084217 T437.664237629 805.381923723 T429.889787443 795.342579699 T421.872776431 785.495786066 T413.55725102 775.901500863 T404.810055872 766.70252284 T395.582756006 757.984643841 T385.891078716 749.787490837 T375.706257218 742.215261694 T365.026952151 735.3585064 T353.889403487 729.275948056 T342.382917194 723.915601236 T330.624685227 719.127784231 T318.69041108 714.793797736 T306.645101507 710.775029081 T294.537436663 706.947040134 T282.392896217 703.237178423 T270.231856641 699.581490522 T258.076664858 695.90652488 T245.993226585 692.007336329 T234.059470021 687.674248796 T222.311181118 682.861233614 T210.752082849 677.608208326 T199.401144221 671.921202332 T188.292725556 665.773728038 T177.454095369 659.162997752 T166.9417793 652.04673302 T156.835884848 644.366387808 T147.220478579 636.081872045 T138.157852202 627.196200431 T129.691936809 617.740482499 T121.857328814 607.755166997 T114.656443611 597.302468452 T108.057844771 586.458199321 T102.006577569 575.297908735 T96.451119678 563.882049614 T91.3416195714 552.258902575 T86.6074860323 540.477106907 T82.1624005503 528.582568695 T77.9302510113 516.610321917 T73.7646246585 504.614409851 T69.4128496136 492.685972714 T64.7030152892 480.895012628 T59.4281243396 469.350898194 T53.3820874616 458.193436159 T46.5474884019 447.500720441 T39.0752438076 437.238047928 T31.1511936363 427.318422484 T22.8588959497 417.703717678 T10.1250723074 403.872742725 " stroke="blue" stroke-width="4.17px" fill="none"/>
<path d="M840.639975208 976.212921269 Q830.116744469 983.320350748 824.878157055 986.90793547 T814.400528205 994.082432961 T809.161486769 997.669345731 " stroke="blue" stroke-width="4.17px" fill="none"/>
<path d="M976.66160318 976.212921269 Q963.970330405 976.6448952 957.624694017 976.860900326 T944.974210506 977.826912154 T932.479928449 979.992629601 T920.258059112 983.388998754 T908.341855009 987.755974429 T896.732206019 992.88592365 T891.006326731 995.629555603 " stroke="blue" stroke-width="4.17px" fill="none"/>
</svg>